<svg width="108" height="40" viewBox="0 0 108 40" fill="none" xmlns="http://www.w3.org/2000/svg">
<path d="M28.5938 4.6875C28.5938 4.51562 28.4531 4.375 28.2812 4.375H11.7188C11.5469 4.375 11.4062 4.51562 11.4062 4.6875V10.4688H28.5938V4.6875ZM33.2812 12.9688H6.71875C4.99219 12.9688 3.59375 14.3672 3.59375 16.0938V28.9062C3.59375 29.5977 4.15234 30.1562 4.84375 30.1562H11.4062V35.3125C11.4062 35.4844 11.5469 35.625 11.7188 35.625H28.2812C28.4531 35.625 28.5938 35.4844 28.5938 35.3125V30.1562H35.1562C35.8477 30.1562 36.4062 29.5977 36.4062 28.9062V16.0938C36.4062 14.3672 35.0078 12.9688 33.2812 12.9688ZM25.9375 32.9688H14.0625V22.1875H25.9375V32.9688ZM32.3438 18.9062C32.3438 19.0781 32.2031 19.2188 32.0312 19.2188H30.4688C30.2969 19.2188 30.1562 19.0781 30.1562 18.9062V17.3438C30.1562 17.1719 30.2969 17.0312 30.4688 17.0312H32.0312C32.2031 17.0312 32.3438 17.1719 32.3438 17.3438V18.9062Z" fill="#858585"/>
<path d="M53.3302 11.9653H54.6695C54.7885 11.9653 54.848 12.0249 54.848 12.1439V27.8582C54.848 27.9772 54.7885 28.0368 54.6695 28.0368H53.3302C53.2111 28.0368 53.1516 27.9772 53.1516 27.8582V12.1439C53.1516 12.0249 53.2111 11.9653 53.3302 11.9653Z" fill="#F7B731"/>
<path d="M46.5003 19.1528H61.5003C61.6194 19.1528 61.6789 19.2124 61.6789 19.3314V20.6707C61.6789 20.7897 61.6194 20.8493 61.5003 20.8493H46.5003C46.3813 20.8493 46.3218 20.7897 46.3218 20.6707V19.3314C46.3218 19.2124 46.3813 19.1528 46.5003 19.1528Z" fill="#F7B731"/>
<path fill-rule="evenodd" clip-rule="evenodd" d="M91.5354 18.7218H96.1484C96.8479 18.7218 97.3975 18.1435 97.3975 17.4462C97.3975 16.7318 96.8479 16.1706 96.1484 16.1706H91.5354C90.8359 16.1706 90.2863 16.7318 90.2863 17.4462C90.2863 18.1435 90.8359 18.7218 91.5354 18.7218ZM101.628 9.87913C102.643 9.87913 103.31 10.2363 103.976 11.0187C104.642 11.8011 104.758 12.9237 104.609 13.9425L103.026 25.1C102.727 27.2448 100.928 28.8249 98.8131 28.8249H80.6439C78.429 28.8249 76.5971 27.0917 76.4139 24.8466L74.8817 6.30565L72.367 5.86343C71.7009 5.74437 71.2346 5.08104 71.3511 4.4007C71.4677 3.70505 72.1172 3.24413 72.8 3.34788L76.7719 3.95848C77.3381 4.06223 77.7545 4.53677 77.8044 5.11506L78.1209 8.92496C78.1708 9.47093 78.6038 9.87913 79.1367 9.87913H101.628ZM80.3771 31.5131C78.9782 31.5131 77.8457 32.6696 77.8457 34.0984C77.8457 35.5101 78.9782 36.6666 80.3771 36.6666C81.7593 36.6666 82.8918 35.5101 82.8918 34.0984C82.8918 32.6696 81.7593 31.5131 80.3771 31.5131ZM99.1125 31.5131C97.7136 31.5131 96.5811 32.6696 96.5811 34.0984C96.5811 35.5101 97.7136 36.6666 99.1125 36.6666C100.495 36.6666 101.627 35.5101 101.627 34.0984C101.627 32.6696 100.495 31.5131 99.1125 31.5131Z" fill="#858585"/>
</svg>
