<svg width="71" height="53" viewBox="0 0 71 53" fill="none" xmlns="http://www.w3.org/2000/svg">
<path d="M35.3596 33.4486L42.6489 26.6522M42.6489 26.6522L49.9382 19.8559M42.6489 26.6522L35.3596 19.8559M42.6489 26.6522L49.9382 33.4486M2.55762 26.6522L25.9345 48.4481C27.3012 49.7228 29.1549 50.4391 31.088 50.4395H60.8722C62.8055 50.4395 64.6595 49.7234 66.0265 48.4489C67.3936 47.1743 68.1615 45.4456 68.1615 43.6431V9.66135C68.1615 7.85884 67.3936 6.13016 66.0265 4.8556C64.6595 3.58103 62.8055 2.86499 60.8722 2.86499H31.088C29.1549 2.86538 27.3012 3.58167 25.9345 4.85632L2.55762 26.6522Z" stroke="#858585" stroke-width="4" stroke-linecap="round" stroke-linejoin="round"/>
</svg>
