<svg width="40" height="40" viewBox="0 0 40 40" fill="none" xmlns="http://www.w3.org/2000/svg">
<g id="Iconly/Bold/Buy">
<g id="Buy">
<path id="Buy_2" fill-rule="evenodd" clip-rule="evenodd" d="M23.5354 18.7218H28.1484C28.8479 18.7218 29.3975 18.1435 29.3975 17.4462C29.3975 16.7318 28.8479 16.1706 28.1484 16.1706H23.5354C22.8359 16.1706 22.2863 16.7318 22.2863 17.4462C22.2863 18.1435 22.8359 18.7218 23.5354 18.7218ZM33.6275 9.87913C34.6434 9.87913 35.3096 10.2363 35.9757 11.0187C36.6419 11.8011 36.7584 12.9237 36.6086 13.9425L35.0265 25.1C34.7267 27.2448 32.9281 28.8249 30.8131 28.8249H12.6439C10.429 28.8249 8.59705 27.0917 8.41386 24.8466L6.88172 6.30565L4.36702 5.86343C3.70087 5.74437 3.23457 5.08104 3.35114 4.4007C3.46772 3.70505 4.11721 3.24413 4.80001 3.34788L8.77192 3.95848C9.33814 4.06223 9.75448 4.53677 9.80445 5.11506L10.1209 8.92496C10.1708 9.47093 10.6038 9.87913 11.1367 9.87913H33.6275ZM12.3771 31.5131C10.9782 31.5131 9.84573 32.6696 9.84573 34.0984C9.84573 35.5101 10.9782 36.6666 12.3771 36.6666C13.7593 36.6666 14.8918 35.5101 14.8918 34.0984C14.8918 32.6696 13.7593 31.5131 12.3771 31.5131ZM31.1125 31.5131C29.7136 31.5131 28.5811 32.6696 28.5811 34.0984C28.5811 35.5101 29.7136 36.6666 31.1125 36.6666C32.4947 36.6666 33.6272 35.5101 33.6272 34.0984C33.6272 32.6696 32.4947 31.5131 31.1125 31.5131Z" fill="#858585"/>
</g>
</g>
</svg>
